<svg width="140" height="33" viewBox="0 0 140 33" xmlns="http://www.w3.org/2000/svg" xmlns:xlink="http://www.w3.org/1999/xlink"><title>6551E627-2D2B-49B1-A8CB-15AAE5D48C4E</title><defs><path id="a" d="M68.974 32.139H0V.252h68.974z"/><path id="c" d="M10.712 27.607V.424H.697v27.183z"/></defs><g fill="none" fill-rule="evenodd"><mask id="b" fill="#fff"><use xlink:href="#a"/></mask><path d="M65.297 20.213a.97.97 0 0 1-.447.657 2.9 2.9 0 0 1-.656.315c-.446.159-.92.316-1.42.5-.497.184-.97.368-1.417.499-.525.184-1.025.341-1.471.524a4.44 4.44 0 0 0-.998.606 3.53 3.53 0 0 0-.71.893c-.21.367-.314.813-.314 1.365 0 1.103.263 1.918.788 2.47.524.524 1.496.812 2.916.812 1.444 0 2.442-.288 2.967-.84.525-.577.787-1.365.787-2.416v-5.385h-.025zm-3.73-11.53c2.547 0 4.413.5 5.622 1.498 1.181.997 1.785 2.258 1.785 3.756v12.869c0 .526-.105 1.105-.289 1.708-.184.63-.552 1.208-1.103 1.707-.552.525-1.314.946-2.26 1.313-.944.343-2.205.526-3.729.526-1.549 0-2.784-.183-3.729-.526-.946-.341-1.707-.788-2.26-1.313-.55-.525-.918-1.103-1.103-1.707-.183-.631-.289-1.209-.289-1.708v-2.048c0-1.104.29-2.102.841-2.994.579-.894 1.366-1.55 2.416-1.918.527-.184 1.104-.369 1.787-.604.656-.237 1.313-.446 1.944-.683.63-.21 1.155-.42 1.627-.578.474-.183.762-.263.868-.315.105-.053.263-.132.447-.237a2.73 2.73 0 0 0 .552-.447c.183-.21.313-.446.446-.682.131-.262.182-.577.182-.92v-.813c0-.29-.051-.579-.182-.893-.106-.316-.316-.58-.605-.842-.288-.262-.683-.472-1.156-.63-.471-.157-1.077-.235-1.811-.235-1.446 0-2.417.288-2.943.892a3.196 3.196 0 0 0-.76 1.89c0 .16-.133.264-.29.264h-3.152a.291.291 0 0 1-.29-.289v-.762c0-.734.132-1.418.422-2.048.262-.63.71-1.208 1.34-1.68.603-.474 1.365-.868 2.31-1.13.946-.263 2.05-.422 3.363-.422zm-50.403 11.53a.978.978 0 0 1-.447.657 2.89 2.89 0 0 1-.658.315c-.447.159-.919.316-1.418.5-.5.184-.972.368-1.418.499-.526.184-1.025.341-1.47.524a4.401 4.401 0 0 0-.999.606 3.545 3.545 0 0 0-.709.893c-.21.367-.316.813-.316 1.365 0 1.103.263 1.918.79 2.47.524.524 1.496.812 2.913.812 1.446 0 2.444-.288 2.97-.84.525-.577.787-1.365.787-2.416v-5.385h-.025zM7.432 8.683c2.549 0 4.413.5 5.621 1.498 1.183.997 1.787 2.258 1.787 3.756v12.869c0 .526-.105 1.105-.289 1.708-.183.63-.552 1.208-1.102 1.707-.552.525-1.314.946-2.26 1.313-.946.343-2.205.526-3.729.526-1.551 0-2.785-.183-3.731-.526-.945-.341-1.706-.788-2.258-1.313-.552-.525-.92-1.103-1.103-1.707-.184-.631-.289-1.209-.289-1.708v-2.048a5.6 5.6 0 0 1 .84-2.994c.577-.894 1.367-1.55 2.417-1.918.525-.184 1.102-.369 1.786-.604.656-.237 1.313-.446 1.944-.683.63-.21 1.156-.42 1.628-.578.473-.183.762-.263.867-.315.105-.053.262-.132.447-.237a2.69 2.69 0 0 0 .55-.447c.185-.21.315-.446.447-.682.132-.262.184-.577.184-.92v-.813c0-.29-.052-.579-.184-.893-.104-.316-.315-.58-.603-.842-.29-.262-.684-.472-1.156-.63-.473-.157-1.078-.235-1.814-.235-1.443 0-2.415.288-2.94.892a3.212 3.212 0 0 0-.763 1.89c0 .16-.13.264-.288.264H.288A.292.292 0 0 1 0 14.724v-.762c0-.734.132-1.418.42-2.048.263-.63.71-1.208 1.339-1.68.605-.474 1.367-.868 2.313-1.13.919-.263 2.048-.422 3.36-.422zm42.946 0h2.1c.185 0 .317.183.263.368l-.709 2.731c-.026.132-.156.21-.262.21h-1.471c-.788 0-1.418.105-1.917.315-.472.21-.868.447-1.13.736a2.12 2.12 0 0 0-.5.867 3.56 3.56 0 0 0-.103.867V31.85a.293.293 0 0 1-.29.289h-3.151a.292.292 0 0 1-.29-.29V14.042c0-.315.053-.788.184-1.392.106-.604.42-1.182.92-1.787.498-.577 1.234-1.102 2.233-1.522.971-.447 2.364-.658 4.123-.658zm-10.637 17.31v.787c0 .341-.053.815-.184 1.419-.106.577-.421 1.182-.92 1.76-.5.577-1.234 1.102-2.233 1.523-.997.42-2.364.63-4.123.63-1.76 0-3.125-.21-4.124-.63-.998-.42-1.733-.92-2.233-1.523-.5-.578-.814-1.183-.918-1.786-.106-.605-.185-1.052-.185-1.393V8.972c0-.158.132-.29.289-.29h3.126c.158 0 .289.132.289.29V25.65c0 .553.078.946.157 1.262.08.315.237.63.474.893.236.288.603.524 1.102.709.473.184 1.13.289 1.944.289.84 0 1.523-.105 2.022-.29.5-.184.868-.42 1.13-.683.263-.262.447-.55.525-.865.078-.316.185-.579.185-1.34V8.971c0-.158.13-.29.288-.29h3.125c.158 0 .29.132.29.29v17.021h-.026zM18.254.251h3.126c.158 0 .289.132.289.29v31.282c0 .157-.131.29-.289.29h-3.126a.292.292 0 0 1-.289-.29V.54c0-.157.132-.289.29-.289z" fill="#3A4854" fill-rule="nonzero" mask="url(#b)"/><path d="M83.835 14.717v-.35c0-1.36-.202-2.26-.607-2.702-.406-.44-1.276-.66-2.612-.66h-2.862c-1.334 0-2.204.22-2.61.66-.405.441-.609 1.342-.609 2.702v1.789c0 1.357.204 2.246.609 2.663.406.418 1.276.626 2.61.626h2.862c1.98 0 3.368.394 4.167 1.181.798.787 1.198 2.157 1.198 4.112v1.789c0 1.956-.4 3.34-1.198 4.148-.8.812-2.187 1.217-4.167 1.217h-2.862c-1.978 0-3.368-.405-4.166-1.217-.799-.809-1.199-2.192-1.199-4.148v-.35h2.146v.35c0 1.36.204 2.26.609 2.7.406.442 1.276.663 2.61.663h2.862c1.336 0 2.206-.22 2.612-.662.405-.442.607-1.342.607-2.701v-1.789c0-1.357-.202-2.246-.607-2.664-.406-.417-1.276-.626-2.612-.626h-2.862c-1.978 0-3.368-.393-4.166-1.18-.799-.787-1.199-2.158-1.199-4.112v-1.79c0-1.954.4-3.337 1.2-4.148.797-.811 2.187-1.216 4.165-1.216h2.862c1.98 0 3.368.405 4.167 1.216.798.81 1.198 2.194 1.198 4.149v.35h-2.146z" fill="#F6543B" fill-rule="nonzero"/><path d="M98.698 29.89v2.002h-4.65c-1.978 0-3.366-.405-4.165-1.217-.8-.809-1.2-2.192-1.2-4.148V4.71h2.147v4.293h7.511v2.002H90.83v15.523c0 1.36.202 2.26.608 2.7.406.442 1.276.663 2.61.663h4.65z" fill="#FAC900" fill-rule="nonzero"/><path d="M111.812 21.448h-6.08c-1.336 0-2.204.208-2.61.626-.406.418-.609 1.307-.609 2.664v1.79c0 1.359.203 2.259.609 2.7.406.441 1.274.662 2.61.662h2.86c1.337 0 2.208-.22 2.612-.662.407-.441.608-1.341.608-2.7v-5.08zm.95-11.23c.797.81 1.197 2.193 1.197 4.15v12.16c0 1.954-.4 3.337-1.198 4.147-.8.812-2.189 1.217-4.168 1.217h-2.862c-1.977 0-3.367-.405-4.165-1.217-.8-.81-1.2-2.193-1.2-4.148v-1.789c0-1.955.4-3.325 1.2-4.112.798-.787 2.188-1.18 4.165-1.18h6.08v-5.079c0-1.36-.2-2.26-.607-2.702-.404-.44-1.275-.66-2.611-.66h-2.862c-1.335 0-2.203.22-2.61.66-.405.442-.608 1.343-.608 2.702v.35h-2.147v-.35c0-1.956.4-3.339 1.2-4.149.798-.81 2.188-1.216 4.165-1.216h2.862c1.98 0 3.369.405 4.168 1.216z" fill="#4EBFE9" fill-rule="nonzero"/><path d="M126.58 11.004h-4.649c-1.334 0-2.204.221-2.61.661-.405.442-.609 1.343-.609 2.702v17.525h-2.147V14.367c0-1.956.4-3.34 1.2-4.149.8-.81 2.188-1.216 4.166-1.216h4.65v2.002z" fill="#C75EEB" fill-rule="nonzero"/><g transform="translate(128.554 4.286)"><mask id="d" fill="#fff"><use xlink:href="#c"/></mask><path d="M10.713 25.604v2.003h-4.65c-1.98 0-3.368-.405-4.167-1.217-.8-.81-1.199-2.192-1.199-4.148V.424h2.146v4.292h7.512V6.72H2.843v15.523c0 1.359.203 2.259.61 2.7.404.442 1.274.662 2.61.662h4.65z" fill="#61E061" fill-rule="nonzero" mask="url(#d)"/></g></g></svg>